<?xml version="1.0" standalone="no"?>
<!DOCTYPE svg PUBLIC "-//W3C//DTD SVG 20010904//EN"
 "http://www.w3.org/TR/2001/REC-SVG-20010904/DTD/svg10.dtd">
<svg version="1.0" xmlns="http://www.w3.org/2000/svg"
 width="360.000000pt" height="180.000000pt" viewBox="0 0 360.000000 180.000000"
 preserveAspectRatio="xMidYMid meet">

<g transform="translate(0.000000,180.000000) scale(0.100000,-0.100000)"
fill="#000000" stroke="none">
<path d="M2060 1537 l0 -44 86 -32 c47 -18 84 -34 82 -36 -2 -2 -39 -17 -83
-33 l-80 -29 -3 -47 c-2 -25 1 -46 5 -46 4 0 71 27 148 58 l140 58 3 40 3 40
-143 57 c-79 31 -147 57 -151 57 -4 0 -7 -19 -7 -43z"/>
<path d="M2203 1220 c-39 -17 -43 -23 -43 -55 0 -28 -4 -35 -20 -35 -16 0 -20
-7 -20 -35 0 -28 4 -35 19 -35 18 0 20 -10 23 -120 4 -147 13 -161 108 -168
l60 -4 0 41 c0 39 -2 41 -29 41 -37 0 -41 12 -41 121 l0 89 35 0 c33 0 35 2
35 35 0 33 -2 35 -35 35 l-35 0 0 55 c0 30 -3 55 -7 54 -5 0 -27 -9 -50 -19z"/>
<path d="M334 1126 c-36 -16 -74 -61 -74 -87 0 -16 8 -19 44 -19 36 0 47 5 60
25 30 45 96 24 96 -31 0 -23 -3 -24 -55 -24 -104 0 -155 -39 -155 -118 0 -35
6 -49 29 -73 25 -24 38 -29 78 -29 29 0 58 7 72 16 22 16 24 16 33 0 6 -11 23
-16 53 -16 l45 0 0 136 c0 156 -11 193 -65 218 -40 19 -119 20 -161 2z m126
-224 c0 -39 -30 -64 -72 -60 -29 3 -33 7 -36 36 -4 36 17 50 76 51 29 1 32 -2
32 -27z"/>
<path d="M715 1126 c-42 -18 -83 -69 -91 -112 -20 -105 15 -202 82 -230 50
-21 133 -18 172 6 32 20 76 95 66 112 -3 4 -23 8 -45 8 -33 0 -41 -4 -49 -24
-18 -49 -68 -59 -105 -21 -21 20 -25 34 -25 80 0 82 20 115 72 115 18 0 33 -8
44 -25 13 -20 24 -25 60 -25 51 0 56 15 25 66 -35 57 -134 81 -206 50z"/>
<path d="M1100 1133 c-98 -37 -142 -180 -87 -283 29 -55 74 -80 147 -80 82 0
138 40 155 113 7 26 6 27 -36 27 -38 0 -46 -4 -61 -30 -34 -60 -111 -44 -124
26 -9 49 1 112 22 135 24 27 68 24 92 -6 16 -20 29 -25 65 -25 l46 0 -9 31
c-12 41 -37 68 -77 85 -32 14 -105 17 -133 7z"/>
<path d="M1448 1120 c-118 -64 -116 -273 4 -336 35 -18 131 -18 168 1 35 18
70 61 70 86 0 30 -70 26 -100 -6 -29 -31 -72 -33 -100 -5 -11 11 -20 24 -20
29 0 5 -3 16 -6 25 -5 14 9 16 116 16 l123 0 -7 53 c-14 100 -62 149 -153 154
-44 2 -67 -2 -95 -17z m118 -58 c11 -7 34 -45 34 -56 0 -3 -29 -6 -65 -6 -70
0 -78 7 -49 48 15 22 57 30 80 14z"/>
<path d="M1891 1114 c-30 -25 -31 -25 -31 -5 0 19 -6 21 -50 21 l-50 0 0 -181
0 -180 48 3 47 3 3 125 c2 98 6 128 19 142 19 21 66 24 81 5 7 -8 13 -68 14
-143 l3 -129 48 -3 48 -3 -3 161 -3 162 -28 24 c-40 34 -105 33 -146 -2z"/>
<path d="M2934 1125 c-18 -7 -37 -21 -43 -32 -9 -16 -10 -15 -11 10 0 26 -2
27 -50 27 l-50 0 0 -180 0 -180 50 0 50 0 0 108 c0 127 10 149 71 158 l40 7
-3 45 c-3 52 -10 57 -54 37z"/>
<path d="M3115 1127 c-87 -41 -123 -177 -72 -277 28 -55 73 -80 145 -80 69 0
117 21 142 62 29 49 26 58 -21 58 -32 0 -46 -6 -61 -25 -27 -35 -79 -34 -107
1 -12 15 -21 35 -21 45 0 17 9 19 115 19 l115 0 0 48 c0 55 -24 107 -62 136
-35 25 -130 32 -173 13z m117 -74 c10 -9 18 -24 18 -35 0 -16 -8 -18 -65 -18
-36 0 -65 4 -65 9 0 4 9 20 21 35 24 30 63 34 91 9z"/>
<path d="M2390 996 c0 -145 9 -186 45 -210 35 -23 107 -21 138 4 32 25 37 25
37 -1 0 -18 5 -20 48 -17 l47 3 3 178 2 177 -49 0 -49 0 -4 -125 c-3 -131 -8
-145 -55 -159 -15 -5 -28 -1 -42 13 -19 19 -21 33 -21 146 l0 125 -50 0 -50 0
0 -134z"/>
</g>
</svg>
