<?xml version="1.0" standalone="no"?>
<!DOCTYPE svg PUBLIC "-//W3C//DTD SVG 20010904//EN"
 "http://www.w3.org/TR/2001/REC-SVG-20010904/DTD/svg10.dtd">
<svg version="1.0" xmlns="http://www.w3.org/2000/svg"
 width="346.000000pt" height="800.000000pt" viewBox="0 0 346.000000 800.000000"
 preserveAspectRatio="xMidYMid meet">

<g transform="translate(0.000000,800.000000) scale(0.100000,-0.100000)"
fill="#000000" stroke="none">
<path d="M1090 7644 l-45 -14 65 6 c36 4 101 10 145 14 l80 7 -100 1 c-58 0
-119 -6 -145 -14z"/>
<path d="M2160 7650 c36 -12 128 -12 135 0 4 6 -24 10 -77 9 -57 -1 -75 -4
-58 -9z"/>
<path d="M2370 7640 l-45 -7 47 -1 c26 -1 67 -6 90 -12 24 -5 79 -17 123 -26
44 -9 84 -21 90 -25 5 -5 18 -9 30 -9 35 0 114 -57 144 -105 34 -53 59 -141
101 -350 16 -83 34 -172 40 -200 19 -93 48 -279 70 -455 5 -41 14 -104 19
-140 24 -162 49 -422 64 -680 23 -398 11 -1002 -23 -1185 -5 -27 -14 -79 -21
-115 -36 -205 -104 -420 -184 -587 -30 -62 -57 -113 -61 -113 -4 0 -15 7 -24
15 -29 26 -160 85 -189 85 -20 0 -46 -14 -83 -46 -143 -122 -327 -212 -519
-253 -47 -10 -95 -24 -106 -30 -19 -10 -47 -64 -38 -73 6 -5 59 -305 68 -382
3 -26 -32 -34 -178 -42 -141 -8 -267 6 -392 42 -96 27 -312 130 -326 154 -7
11 -3 23 12 40 64 75 181 245 181 264 0 38 -29 65 -106 101 -100 46 -184 97
-255 157 -37 30 -68 48 -84 48 -30 0 -159 -62 -191 -91 -25 -23 -27 -22 -76
71 -248 466 -328 1130 -263 2175 30 476 76 830 167 1290 34 174 52 236 84 287
24 37 69 75 114 95 33 15 180 58 230 67 14 3 -2 3 -35 1 -85 -6 -221 -48 -291
-89 -64 -38 -151 -130 -177 -186 -9 -19 -23 -66 -32 -105 -9 -38 -20 -86 -25
-105 -10 -34 -23 -120 -40 -245 -4 -33 -15 -114 -24 -180 -58 -428 -76 -775
-79 -1525 -4 -1070 8 -1691 43 -2190 25 -372 41 -580 50 -675 5 -55 12 -138
15 -185 3 -47 10 -123 15 -170 6 -47 24 -209 40 -361 82 -756 96 -844 160
-969 46 -91 152 -171 270 -206 167 -48 929 -79 1310 -54 246 17 500 40 565 51
179 32 309 116 372 244 54 108 73 222 113 680 11 127 24 277 30 335 27 288 53
657 75 1050 8 151 19 358 25 460 6 103 10 644 10 1220 0 972 -8 1324 -34 1640
-3 30 -8 91 -11 135 -3 44 -10 114 -15 155 -5 41 -17 138 -25 215 -23 203 -44
335 -85 540 -39 201 -57 253 -106 320 -54 73 -76 91 -170 138 -99 50 -166 68
-314 87 -36 4 -72 10 -80 12 -8 3 -35 2 -60 -2z m371 -3986 c37 -18 69 -41 73
-50 23 -61 -219 -343 -394 -458 -191 -126 -365 -191 -419 -157 -13 9 -60 277
-61 348 0 35 21 53 61 53 12 0 36 4 53 10 17 5 63 19 101 31 137 42 322 143
422 230 42 37 80 35 164 -7z m-1906 16 c13 -22 175 -127 268 -174 65 -33 103
-59 108 -72 6 -17 -8 -43 -72 -130 -94 -130 -111 -139 -170 -98 -110 76 -332
337 -327 384 5 46 172 125 193 90z m2040 -802 c57 -29 75 -75 56 -145 -22 -82
-120 -143 -269 -169 -116 -21 -230 -7 -273 32 -79 71 103 245 301 289 66 14
148 11 185 -7z m-2112 -4 c40 -9 95 -28 123 -41 115 -54 225 -172 209 -224
-12 -38 -79 -59 -188 -59 -105 0 -179 16 -257 55 -54 28 -84 58 -105 107 -29
71 -13 128 46 159 43 23 81 23 172 3z m1063 -135 c184 -25 256 -96 189 -185
-95 -125 -343 -150 -498 -52 -117 75 -118 166 -2 212 80 32 195 41 311 25z
m1042 -396 c34 -25 47 -78 33 -130 -15 -57 -41 -85 -108 -120 -135 -71 -344
-84 -422 -25 -34 25 -37 51 -13 99 79 152 396 261 510 176z m-2058 6 c75 -17
202 -84 251 -133 129 -127 91 -186 -120 -186 -227 0 -370 86 -371 224 0 30 7
45 34 72 32 32 38 34 98 34 34 0 83 -5 108 -11z m1124 -157 c77 -28 106 -55
106 -100 0 -51 -39 -95 -117 -134 -161 -79 -411 -30 -478 94 -36 67 2 115 116
149 90 26 288 22 373 -9z m830 -352 c82 -13 106 -37 106 -107 0 -82 -32 -129
-115 -171 -72 -35 -156 -54 -250 -55 -189 -2 -243 61 -148 173 68 79 182 140
301 160 26 4 47 8 47 9 0 0 27 -3 59 -9z m-1929 -15 c168 -35 343 -168 333
-252 -12 -107 -362 -91 -497 23 -40 33 -61 79 -61 131 0 47 22 80 64 99 40 17
75 17 161 -1z m1099 -161 c77 -24 110 -53 110 -95 0 -101 -177 -190 -348 -176
-84 7 -180 51 -225 103 -40 45 -43 100 -7 133 69 65 317 83 470 35z m-1051
-363 c87 -23 141 -48 212 -101 63 -47 81 -67 98 -110 20 -49 8 -73 -44 -90
-105 -34 -297 -11 -401 48 -119 66 -141 214 -40 256 50 20 85 20 175 -3z
m1899 5 c51 -22 62 -41 62 -101 -2 -76 -29 -115 -112 -158 -87 -45 -156 -61
-267 -61 -104 0 -158 18 -177 59 -10 23 -9 33 12 72 25 48 95 110 164 146 101
52 248 72 318 43z m-848 -166 c122 -38 148 -95 79 -172 -55 -60 -128 -89 -239
-96 -107 -5 -174 11 -248 59 -146 97 -102 195 104 230 75 13 229 2 304 -21z"/>
<path d="M2581 3586 c-52 -19 -50 -34 5 -38 43 -3 47 -5 58 -37 18 -56 36 -51
36 11 0 78 -22 92 -99 64z"/>
<path d="M2114 3276 c-3 -8 -6 -36 -7 -62 -2 -44 0 -48 28 -56 38 -10 107 0
102 15 -2 7 -22 15 -45 20 -39 8 -41 10 -44 49 -3 42 -23 62 -34 34z"/>
<path d="M865 3510 c-31 -34 -26 -96 9 -127 29 -25 47 -26 54 -4 2 7 -5 15
-17 18 -39 10 -42 81 -3 98 12 5 21 14 19 20 -7 19 -43 16 -62 -5z"/>
<path d="M2777 2843 c-11 -3 -17 -12 -14 -21 3 -18 9 -18 40 -6 15 6 17 3 11
-20 -4 -16 -2 -26 5 -26 6 0 11 -5 11 -11 0 -7 -12 -9 -35 -5 -27 5 -35 4 -35
-8 0 -37 76 -48 106 -15 15 16 16 24 6 39 -6 11 -9 26 -6 35 13 34 -31 53 -89
38z"/>
<path d="M2657 2703 c-11 -10 -8 -61 4 -68 14 -10 18 -4 23 38 4 35 -8 49 -27
30z"/>
<path d="M2520 2671 c0 -29 14 -49 23 -34 8 12 -4 63 -14 63 -5 0 -9 -13 -9
-29z"/>
<path d="M2588 2682 c-30 -4 -37 -22 -15 -40 19 -16 57 -3 57 19 0 22 -7 26
-42 21z"/>
<path d="M2470 2660 c0 -11 5 -20 10 -20 6 0 10 9 10 20 0 11 -4 20 -10 20 -5
0 -10 -9 -10 -20z"/>
<path d="M636 2765 c-8 -49 -3 -65 20 -65 12 0 14 11 12 52 -4 66 -23 74 -32
13z"/>
<path d="M902 2694 c-16 -11 -22 -24 -20 -42 2 -19 -2 -27 -12 -27 -9 0 -16
11 -18 27 -4 35 -24 50 -63 46 -44 -4 -59 -30 -39 -66 15 -26 19 -27 112 -30
87 -2 100 0 118 18 26 26 25 55 -2 74 -28 20 -48 20 -76 0z m-88 -10 c21 -8
21 -38 0 -55 -11 -9 -20 -10 -32 -2 -43 27 -15 75 32 57z m156 -23 c0 -10 -6
-24 -14 -30 -20 -17 -56 3 -56 29 0 16 7 20 35 20 28 0 35 -4 35 -19z"/>
<path d="M1565 2647 c-24 -19 -3 -32 24 -15 16 10 23 10 32 1 10 -10 4 -20
-24 -47 -20 -19 -37 -37 -37 -40 0 -3 25 -6 55 -6 30 0 55 5 55 10 0 6 -9 10
-20 10 -11 0 -20 4 -20 8 0 5 9 17 20 27 24 22 25 29 4 49 -19 20 -64 21 -89
3z"/>
<path d="M1802 2579 c3 -31 6 -34 38 -34 26 0 36 5 38 19 2 10 -2 22 -10 27
-21 14 -27 11 -21 -12 4 -16 2 -20 -8 -17 -8 3 -14 13 -14 23 0 10 -6 20 -13
23 -10 3 -13 -5 -10 -29z"/>
<path d="M1908 2596 c-10 -7 -18 -20 -18 -29 0 -20 36 -41 56 -33 21 8 17 26
-6 26 -11 0 -20 7 -20 15 0 18 12 19 28 3 7 -7 12 -8 12 -2 0 11 -21 34 -29
34 -4 0 -14 -7 -23 -14z"/>
<path d="M1750 2576 c0 -8 -6 -13 -12 -12 -7 0 -15 -3 -18 -9 -3 -5 10 -10 28
-11 28 -1 32 2 32 22 0 15 -6 24 -15 24 -8 0 -15 -6 -15 -14z"/>
<path d="M2757 2290 c-39 -46 -44 -71 -17 -92 28 -23 62 -23 90 0 28 23 22 72
-10 72 -10 0 -22 5 -25 10 -3 6 -1 10 4 10 6 0 11 7 11 15 0 25 -26 17 -53
-15z m43 -55 c0 -8 -6 -15 -14 -15 -17 0 -28 14 -19 24 12 12 33 6 33 -9z"/>
<path d="M2713 2151 c3 -11 1 -21 -4 -21 -5 0 -9 7 -9 15 0 19 -26 20 -34 0
-6 -18 19 -45 43 -45 27 0 47 28 35 48 -17 26 -38 28 -31 3z"/>
<path d="M2440 2135 c0 -15 4 -24 10 -20 6 3 10 12 10 20 0 8 -4 17 -10 20 -6
4 -10 -5 -10 -20z"/>
<path d="M2480 2136 c0 -14 5 -26 10 -26 6 0 10 7 10 15 0 8 0 18 1 22 0 4 -4
9 -10 11 -6 2 -11 -8 -11 -22z"/>
<path d="M2526 2138 c8 -29 11 -31 22 -24 15 9 2 46 -15 46 -10 0 -12 -6 -7
-22z"/>
<path d="M2577 2153 c-13 -12 -7 -43 8 -43 9 0 15 9 15 25 0 24 -10 32 -23 18z"/>
<path d="M2617 2135 c7 -32 36 -34 31 -3 -2 13 -10 24 -19 26 -13 2 -15 -3
-12 -23z"/>
<path d="M677 2252 c-20 -21 -37 -41 -37 -45 0 -4 13 -7 29 -7 16 0 36 -7 45
-15 8 -8 18 -15 22 -15 13 0 32 35 24 45 -5 5 -10 23 -12 40 -4 42 -27 42 -71
-3z m43 -11 c0 -24 -18 -37 -32 -23 -8 8 -7 16 2 27 17 21 30 19 30 -4z"/>
<path d="M910 2125 c0 -39 15 -48 22 -12 5 27 0 47 -13 47 -5 0 -9 -16 -9 -35z"/>
<path d="M1005 2130 c-7 -21 0 -40 16 -40 12 0 12 47 0 55 -5 3 -12 -4 -16
-15z"/>
<path d="M814 2126 c-3 -8 2 -28 10 -45 15 -28 18 -29 42 -19 20 9 24 18 22
42 -2 19 -9 32 -19 34 -12 2 -15 -4 -11 -28 2 -18 0 -30 -7 -30 -9 0 -16 28
-12 53 2 13 -19 7 -25 -7z"/>
<path d="M956 2118 c8 -29 11 -31 22 -24 15 9 2 46 -15 46 -10 0 -12 -6 -7
-22z"/>
<path d="M1590 2121 c0 -5 -3 -16 -6 -25 -5 -12 0 -16 19 -16 13 0 30 -6 36
-14 16 -19 -12 -40 -44 -32 -32 8 -33 -11 -2 -23 36 -14 77 -2 90 26 9 21 8
27 -8 39 -10 8 -27 14 -37 14 -10 0 -18 5 -18 10 0 6 14 10 30 10 17 0 30 5
30 10 0 6 -20 10 -45 10 -25 0 -45 -4 -45 -9z"/>
<path d="M1820 2044 c0 -29 3 -35 16 -30 9 4 23 1 30 -5 11 -9 14 -6 14 20 0
24 -4 31 -20 31 -11 0 -20 5 -20 10 0 6 -4 10 -10 10 -5 0 -10 -16 -10 -36z"/>
<path d="M1904 2066 c-8 -21 -1 -61 11 -61 6 0 11 17 13 38 3 37 -13 52 -24
23z"/>
<path d="M1778 2044 c-3 -16 -9 -37 -13 -48 -6 -14 -4 -17 11 -14 22 4 31 47
16 74 -8 14 -10 12 -14 -12z"/>
<path d="M2716 1784 c-21 -21 -20 -40 4 -64 11 -11 20 -27 20 -35 0 -8 9 -15
19 -15 22 0 71 57 71 82 0 41 -82 65 -114 32z m64 -29 c0 -8 -6 -15 -14 -15
-17 0 -28 14 -19 24 12 12 33 6 33 -9z"/>
<path d="M2705 1640 c-3 -5 -3 -10 1 -10 4 0 0 -8 -9 -18 -21 -23 -13 -32 26
-32 23 0 27 3 19 13 -7 8 -7 18 -2 27 5 8 6 18 4 22 -7 11 -32 10 -39 -2z"/>
<path d="M2430 1625 c-7 -8 -16 -12 -21 -9 -15 9 -10 -13 6 -26 12 -10 15 -10
15 4 0 21 16 21 28 0 11 -20 28 -12 35 17 4 16 2 19 -10 15 -9 -4 -21 -2 -28
4 -9 7 -16 6 -25 -5z"/>
<path d="M2524 1610 c-1 -22 4 -25 33 -27 29 -1 32 1 23 13 -7 7 -10 20 -7 27
4 10 -3 14 -21 13 -22 -1 -27 -6 -28 -26z"/>
<path d="M2605 1623 c4 -10 7 -28 6 -40 -1 -35 27 -28 46 12 9 19 13 38 8 42
-4 5 -10 2 -12 -4 -5 -15 -33 -17 -33 -3 0 6 -5 10 -11 10 -7 0 -8 -7 -4 -17z"/>
<path d="M740 1769 c-19 -3 -27 -7 -17 -8 22 -1 22 -19 -3 -56 -24 -36 -25
-45 -6 -45 18 0 81 100 69 109 -4 4 -24 4 -43 0z"/>
<path d="M830 1622 c0 -6 5 -12 12 -14 6 -2 8 -10 4 -16 -11 -19 -26 -14 -26
9 0 34 -25 16 -28 -21 -3 -31 -2 -32 25 -26 41 10 60 32 47 53 -12 20 -34 29
-34 15z"/>
<path d="M900 1616 c-16 -21 -6 -46 20 -46 11 0 20 -4 20 -10 0 -5 5 -10 10
-10 6 0 10 16 10 35 0 19 -4 35 -9 35 -5 0 -16 2 -24 5 -7 3 -20 -1 -27 -9z
m40 -21 c0 -8 -7 -15 -15 -15 -8 0 -15 7 -15 15 0 8 7 15 15 15 8 0 15 -7 15
-15z"/>
<path d="M985 1609 c-4 -12 -2 -26 4 -32 13 -13 16 -10 25 26 8 33 -19 39 -29
6z"/>
<path d="M1045 1620 c-9 -15 4 -30 20 -23 8 3 15 1 15 -5 0 -6 -6 -12 -12 -15
-7 -2 -10 -8 -6 -12 5 -5 19 -3 33 3 22 10 24 14 13 37 -11 26 -51 35 -63 15z"/>
<path d="M1584 1586 c-3 -8 -3 -20 0 -25 4 -6 1 -19 -6 -30 -18 -29 5 -51 52
-51 42 0 66 21 55 47 -4 10 -8 29 -9 43 -1 22 -6 25 -44 28 -30 2 -44 -1 -48
-12z m66 -17 c0 -5 -9 -9 -20 -9 -19 0 -26 11 -14 23 8 8 34 -3 34 -14z m-5
-48 c0 -8 -4 -16 -10 -18 -16 -5 -38 14 -30 26 9 16 40 9 40 -8z"/>
<path d="M1744 1536 c-8 -21 -1 -49 14 -54 8 -2 12 7 12 27 0 33 -17 51 -26
27z"/>
<path d="M1795 1528 c-12 -31 2 -48 40 -48 30 0 35 3 35 24 0 32 -20 44 -27
17 -7 -27 -17 -27 -30 2 -10 20 -12 20 -18 5z"/>
<path d="M1886 1531 c-9 -14 16 -51 35 -51 16 0 44 48 34 58 -3 4 -14 1 -24
-5 -13 -8 -22 -8 -29 -1 -6 6 -12 6 -16 -1z"/>
<path d="M770 1218 c0 -9 5 -20 10 -23 16 -10 1 -25 -26 -25 -13 0 -24 -4 -24
-10 0 -5 11 -10 25 -10 25 0 33 -14 15 -25 -15 -9 -12 -35 4 -35 8 0 18 9 21
20 3 11 10 20 15 20 5 0 14 -9 20 -20 6 -11 18 -20 27 -20 14 0 14 2 -1 25
-22 33 -21 35 14 35 17 0 30 5 30 10 0 6 -11 10 -23 10 -32 0 -38 9 -26 32 16
30 0 36 -22 8 l-19 -25 -20 25 c-15 20 -20 21 -20 8z"/>
<path d="M967 1094 c-10 -13 -13 -24 -7 -24 6 0 15 -10 20 -22 l9 -23 7 23 c3
12 13 22 20 22 8 0 14 5 14 10 0 6 -7 10 -15 10 -7 0 -18 6 -22 14 -6 11 -12
9 -26 -10z"/>
<path d="M2684 1245 c-3 -8 -15 -17 -26 -21 -12 -3 -17 -11 -14 -21 4 -9 -1
-17 -13 -20 -16 -4 -17 -8 -7 -29 13 -28 24 -30 42 -6 13 16 13 16 14 0 0 -22
23 -23 40 -3 7 8 19 15 27 15 10 0 14 7 10 20 -3 13 0 20 9 20 8 0 14 7 14 15
0 8 -4 15 -10 15 -5 0 -10 7 -10 15 0 8 -5 15 -10 15 -6 0 -13 -7 -16 -15 -4
-8 -10 -15 -15 -15 -5 0 -9 7 -9 15 0 19 -19 20 -26 0z"/>
<path d="M2437 1124 c-23 -12 -26 -19 -21 -42 10 -41 12 -42 59 -42 47 0 49 1
59 42 6 25 2 29 -30 43 -20 8 -37 15 -38 15 0 -1 -13 -8 -29 -16z m53 -19 c17
-21 5 -45 -24 -45 -29 0 -40 24 -20 45 19 19 28 19 44 0z"/>
<path d="M1600 1060 c-11 -11 -20 -31 -20 -45 0 -29 32 -65 58 -65 57 0 86 82
40 114 -30 21 -54 20 -78 -4z m58 -49 c-2 -15 -9 -26 -18 -26 -16 0 -25 37
-16 62 10 25 38 -5 34 -36z"/>
<path d="M1886 984 c-5 -12 -16 -15 -54 -12 -26 3 -55 8 -66 13 -14 6 -17 4
-14 -11 3 -17 13 -19 83 -19 72 0 80 2 80 19 0 25 -21 32 -29 10z"/>
<path d="M955 7620 c-3 -5 -2 -10 4 -10 5 0 13 5 16 10 3 6 2 10 -4 10 -5 0
-13 -4 -16 -10z"/>
<path d="M1610 7614 c-25 -2 -119 -8 -210 -14 -238 -15 -468 -54 -600 -101
-19 -7 -37 -15 -40 -18 -3 -4 -17 -12 -32 -18 -58 -26 -113 -144 -147 -313
-38 -195 -59 -321 -71 -430 -38 -340 -53 -505 -66 -740 -7 -136 -7 -677 1
-750 3 -25 9 -103 14 -175 14 -198 30 -347 41 -379 6 -16 10 -44 10 -62 0 -18
7 -63 15 -101 33 -145 46 -199 54 -218 5 -11 23 -56 41 -100 64 -162 158 -288
289 -386 63 -49 67 -50 117 -43 50 6 51 5 71 -29 43 -72 217 -179 323 -197
144 -26 170 -29 290 -29 119 -1 247 14 342 39 105 28 275 143 305 205 16 34
17 35 67 29 49 -6 53 -4 117 44 86 65 167 158 219 248 71 125 133 329 160 534
7 47 13 96 16 110 11 74 27 301 33 490 14 387 -2 844 -39 1145 -5 44 -17 139
-25 210 -21 176 -60 410 -97 585 -34 161 -79 273 -127 313 -54 45 -209 92
-381 116 -152 22 -586 44 -690 35z m60 -1329 c5 -3 10 -33 10 -65 l0 -59 -52
-5 c-29 -4 -69 -3 -88 2 -28 6 -35 13 -41 41 -10 47 3 84 32 93 26 8 122 3
139 -7z m77 -15 l8 -31 40 30 c40 30 75 40 75 21 0 -5 -13 -19 -30 -32 -16
-12 -30 -25 -30 -29 0 -3 16 -17 35 -30 19 -13 35 -27 35 -31 0 -18 -55 -6
-86 17 -40 31 -44 31 -44 2 0 -30 -6 -36 -31 -30 -16 5 -19 14 -19 62 0 77 32
111 47 51z m197 14 c3 -9 6 -36 6 -60 0 -24 4 -44 10 -44 5 0 19 19 31 43 12
23 28 50 37 60 18 20 55 23 69 5 17 -21 63 -108 63 -118 0 -15 -36 -12 -50 5
-12 15 -57 12 -96 -6 -11 -6 -40 -9 -65 -7 l-44 3 -2 45 c0 25 1 55 3 68 5 25
29 30 38 6z m-557 -34 c36 -51 55 -59 53 -22 -4 49 0 62 15 62 11 0 15 -13 17
-55 0 -30 1 -61 2 -67 1 -7 -13 -14 -30 -16 -26 -3 -38 4 -71 42 -22 26 -43
46 -47 46 -3 0 -6 -18 -6 -39 0 -75 -39 -64 -47 13 -7 56 7 76 53 76 27 0 38
-7 61 -40z m1123 -506 c141 -9 248 -21 266 -29 40 -17 43 -40 46 -300 1 -110
6 -196 12 -203 7 -9 6 -19 -1 -30 -6 -10 -11 -96 -12 -206 -1 -104 -4 -223 -7
-265 -3 -42 -8 -110 -10 -151 -12 -201 -27 -298 -48 -312 -6 -4 -50 -8 -97 -8
-47 0 -144 -4 -215 -10 -387 -29 -832 -42 -1259 -37 -242 3 -452 8 -466 12
-29 8 -33 19 -69 230 -34 195 -52 441 -57 751 -4 287 4 445 27 495 11 25 16
26 133 33 67 4 208 16 312 25 267 25 1110 28 1445 5z m401 -216 c1 -18 2 -46
3 -61 1 -16 -2 -31 -6 -33 -4 -3 -8 17 -8 45 0 27 -3 56 -6 65 -3 9 -1 16 5
16 6 0 12 -15 12 -32z m14 -149 c7 -38 2 -59 -11 -46 -3 3 -8 24 -11 46 -7 54
13 54 22 0z m-2 -316 c-2 -104 -8 -192 -13 -197 -5 -5 -7 75 -6 185 4 216 3
199 15 199 5 0 7 -80 4 -187z m-13 -273 c0 -5 -2 -10 -4 -10 -3 0 -8 5 -11 10
-3 6 -1 10 4 10 6 0 11 -4 11 -10z m-13 -97 c-2 -16 -4 -5 -4 22 0 28 2 40 4
28 2 -13 2 -35 0 -50z m-927 -843 c222 -16 360 -44 360 -72 -2 -51 -161 -156
-286 -188 -113 -30 -418 -39 -559 -16 -118 19 -255 81 -323 147 -70 67 -60 78
98 103 218 35 456 43 710 26z"/>
<path d="M1547 6262 c-3 -4 -7 -20 -8 -37 -4 -30 -3 -30 47 -33 49 -3 52 -2
57 25 3 15 2 31 -1 35 -10 10 -90 19 -95 10z"/>
<path d="M2046 6244 c-10 -26 -7 -34 12 -34 26 0 33 10 21 31 -12 23 -25 24
-33 3z"/>
<path d="M1890 3748 c-31 -6 -136 -7 -243 -4 -171 5 -188 4 -185 -11 5 -26
112 -42 278 -41 175 0 255 14 255 43 0 24 -26 27 -105 13z"/>
</g>
</svg>
